<?xml version="1.0" encoding="UTF-8"?>
<svg version="1.1" xmlns="http://www.w3.org/2000/svg" width="900" height="392">
<path d="M0 0 C1.45592151 1.24968642 2.89616541 2.51811986 4.3125 3.8125 C4.87839844 4.32167969 5.44429687 4.83085938 6.02734375 5.35546875 C7.4375 6.6875 7.4375 6.6875 9.3125 8.8125 C9.3125 9.4725 9.3125 10.1325 9.3125 10.8125 C9.75078125 10.41160156 10.1890625 10.01070312 10.640625 9.59765625 C30.85083804 -8.51759568 51.29799058 -16.20792879 78.3125 -15.1875 C96.83979185 -13.7623237 112.98992104 -7.65224158 125.9609375 5.95703125 C143.82631515 27.65070411 145.50484036 56.19081205 145.42602539 83.09155273 C145.42574226 84.44350177 145.4259037 85.79545096 145.4264679 87.1473999 C145.42675096 90.76417886 145.42093476 94.38092362 145.41389394 97.99769473 C145.40757757 101.79729453 145.40705013 105.59689539 145.40586853 109.39649963 C145.40277936 116.5677409 145.39459903 123.73896665 145.38451904 130.91020113 C145.37117491 140.61754588 145.36583846 150.32489497 145.36001682 160.03224659 C145.3506571 175.29234265 145.33072222 190.55240598 145.3125 205.8125 C125.8425 205.8125 106.3725 205.8125 86.3125 205.8125 C86.25642578 191.34728516 86.25642578 191.34728516 86.19921875 176.58984375 C86.16892307 170.46027239 86.13788451 164.33071951 86.10351562 158.20117188 C86.04916748 148.48398565 85.99774894 138.76685064 85.96606445 129.04956055 C85.94296791 121.97039537 85.90944183 114.8913663 85.86379844 107.81230932 C85.84002198 104.06988504 85.82119192 100.32759424 85.81488609 96.58509636 C85.80876371 93.0498121 85.78851259 89.51486866 85.75822449 85.97971153 C85.74547953 84.08969488 85.74699445 82.19959811 85.7492218 80.30953979 C85.62266185 68.55059521 84.5681512 54.55136872 77.3125 44.8125 C70.27825556 39.01777 61.98714361 39.13287613 53.3125 39.8125 C46.59936032 41.56956643 41.67762446 44.96740245 38.0078125 50.93359375 C31.30630844 63.32542819 30.17500513 76.54851742 30.10717773 90.35717773 C30.09727814 91.60665695 30.08737854 92.85613617 30.07717896 94.14347839 C30.05109342 97.55204086 30.02918963 100.96058118 30.00917697 104.36918139 C29.98722441 107.93796407 29.95988132 111.50670544 29.93312073 115.07545471 C29.88331863 121.8254823 29.83833379 128.57553296 29.79509836 135.32560545 C29.73635839 144.45257033 29.67013902 153.57948079 29.60434818 162.70639706 C29.5009689 177.0750613 29.40754999 191.44377265 29.3125 205.8125 C10.1725 205.8125 -8.9675 205.8125 -28.6875 205.8125 C-28.74808594 197.335625 -28.80867188 188.85875 -28.87109375 180.125 C-28.91678887 174.04195611 -28.96303907 167.9589184 -29.01008511 161.87588501 C-29.07081833 154.01362692 -29.1302804 146.15136629 -29.18481445 138.2890625 C-29.22802454 132.05997085 -29.27438848 125.83091159 -29.32437855 119.60187054 C-29.35068709 116.31048763 -29.37505501 113.01910983 -29.39657402 109.72769165 C-27.62628129 74.76453634 -27.62628129 74.76453634 -41.234375 44.265625 C-46.96703891 39.21406968 -52.5602837 39.40148708 -59.87109375 39.51953125 C-64.86063258 39.90255624 -68.42105659 41.31995097 -72.6875 43.8125 C-73.38488281 44.10382813 -74.08226562 44.39515625 -74.80078125 44.6953125 C-77.18194652 46.10527785 -77.63564882 47.28077163 -78.6875 49.8125 C-79.07808594 50.54984375 -79.46867187 51.2871875 -79.87109375 52.046875 C-88.09324597 68.54240781 -87.16156024 86.50683918 -87.19361091 104.48365593 C-87.20310601 108.05642977 -87.22931656 111.62908394 -87.25361633 115.20178223 C-87.29698306 121.94088374 -87.32571184 128.67996165 -87.34893972 135.41915941 C-87.38125959 144.54441675 -87.43668261 153.66953351 -87.49068546 162.79468346 C-87.57494692 177.13391333 -87.62876513 191.47309017 -87.6875 205.8125 C-106.8275 205.8125 -125.9675 205.8125 -145.6875 205.8125 C-145.6875 134.8625 -145.6875 63.9125 -145.6875 -9.1875 C-126.5475 -9.1875 -107.4075 -9.1875 -87.6875 -9.1875 C-87.1925 -4.7325 -87.1925 -4.7325 -86.6875 -0.1875 C-86.03265625 -0.70699219 -85.3778125 -1.22648437 -84.703125 -1.76171875 C-59.36236473 -21.12520929 -24.7992197 -19.39850074 0 0 Z " fill="#C8102E" transform="translate(522.6875,75.1875)"/>
<path d="M0 0 C22.27536915 18.87083675 36.0842393 45.74468666 39.3125 74.6875 C39.69091059 80.51505973 39.70250395 86.3499032 39.6875 92.1875 C39.68695618 92.98297241 39.68641235 93.77844482 39.68585205 94.59802246 C39.6469439 106.98202018 39.00498398 118.77833209 35.3125 130.6875 C35.09287598 131.39696777 34.87325195 132.10643555 34.64697266 132.83740234 C26.34554615 158.62293733 9.28139496 181.57462796 -14.6875 194.6875 C-27.94218485 201.37338241 -41.84278728 204.96336767 -56.6875 205.6875 C-57.47125 205.72875 -58.255 205.77 -59.0625 205.8125 C-81.43600959 206.40127657 -102.57366697 198.94902752 -119.6875 184.6875 C-120.0175 226.2675 -120.3475 267.8475 -120.6875 310.6875 C-139.8275 310.6875 -158.9675 310.6875 -178.6875 310.6875 C-178.6875 203.1075 -178.6875 95.5275 -178.6875 -15.3125 C-159.5475 -15.3125 -140.4075 -15.3125 -120.6875 -15.3125 C-120.1925 -8.3825 -120.1925 -8.3825 -119.6875 -1.3125 C-118.181875 -2.488125 -116.67625 -3.66375 -115.125 -4.875 C-80.34867692 -30.06554172 -32.92319019 -25.82210995 0 0 Z M-111.6875 51.6875 C-123.36672519 67.6653289 -124.72957176 88.00892038 -122.38720703 107.14013672 C-119.63838809 122.46699086 -111.23008285 135.24165098 -98.875 144.5625 C-87.32141882 152.11060234 -73.90270852 154.11826084 -60.4375 151.5625 C-45.74783141 147.89008285 -35.61419951 139.75684045 -27.67529297 126.98266602 C-18.01558196 110.68108303 -16.89699218 91.7642632 -20.8125 73.5 C-24.77900033 59.64571656 -32.2917732 47.10019674 -44.625 39.25 C-46.2950598 38.36221782 -47.98284445 37.50689393 -49.6875 36.6875 C-50.46996094 36.27628906 -51.25242187 35.86507812 -52.05859375 35.44140625 C-73.11269303 25.94899643 -97.51410002 34.85658753 -111.6875 51.6875 Z " fill="#C8102E" transform="translate(860.6875,81.3125)"/>
<path d="M0 0 C19.14 0 38.28 0 58 0 C58.03738281 9.43851563 58.07476562 18.87703125 58.11328125 28.6015625 C58.14357505 34.59897273 58.17461221 40.59636404 58.20898438 46.59375 C58.26334381 56.10252113 58.31476194 65.6112398 58.34643555 75.12011719 C58.36952362 82.04728747 58.40304054 88.97431847 58.44870156 95.90137804 C58.47248927 99.56384631 58.49131205 103.2261779 58.49761391 106.88872147 C58.50487275 110.99323133 58.53543154 115.09727001 58.56762695 119.20166016 C58.56619186 120.39497452 58.56475677 121.58828888 58.5632782 122.81776428 C58.6852064 133.8875226 59.95435836 145.46648818 66 155 C66.556875 155.886875 67.11375 156.77375 67.6875 157.6875 C74.64180748 164.64180748 83.38180076 166.93141762 93.015625 167.03125 C101.66215264 166.58783833 110.85178073 164.49954609 117 158 C125.0340156 146.0334182 126.13901161 134.03487798 126.20532227 119.99633789 C126.21522186 118.69809082 126.22512146 117.39984375 126.23532104 116.06225586 C126.2622297 112.51941426 126.28331475 108.97655953 126.30332303 105.43367314 C126.32526976 101.72475528 126.35261574 98.01587724 126.37937927 94.30699158 C126.42918918 87.29134342 126.47417116 80.27567302 126.51740164 73.25998157 C126.57613292 63.77426393 126.64235655 54.28859875 126.70815182 44.80292797 C126.81154333 29.86865406 126.90495413 14.93433476 127 0 C146.14 0 165.28 0 185 0 C185.06804956 17.49990303 185.12317363 34.99969091 185.15543652 52.49969006 C185.17082323 60.62752754 185.19175329 68.75527621 185.22631836 76.88305664 C185.25647458 83.9775807 185.27563432 91.07204037 185.28226548 98.16662675 C185.28613399 101.91377487 185.295048 105.66073899 185.31719017 109.40782738 C185.48654945 139.26771067 185.21820698 169.6375137 163.3671875 192.62890625 C162.58601562 193.41136719 161.80484375 194.19382812 161 195 C160.23945313 195.77214844 159.47890625 196.54429687 158.6953125 197.33984375 C142.36803123 212.99797415 120.26626806 219.92205661 98 221 C97.17886719 221.04125 96.35773438 221.0825 95.51171875 221.125 C68.97053091 221.7693991 43.67998781 214.19077436 24.01953125 195.95703125 C9.59081956 182.02909914 0.52329063 162.23396853 -0.08954048 142.05108833 C-0.12315962 138.33209081 -0.12382328 134.61383745 -0.11352539 130.89477539 C-0.11324301 129.46518964 -0.11340224 128.03560374 -0.1139679 126.60601807 C-0.1142539 122.74084056 -0.10838899 118.8756943 -0.10139394 115.01052403 C-0.09512763 110.96530521 -0.09455401 106.9200856 -0.09336853 102.87486267 C-0.09026486 95.22169837 -0.0820645 87.56854842 -0.07201904 79.91539043 C-0.06082792 71.19955552 -0.0553399 62.48371992 -0.05032361 53.76787961 C-0.03988106 35.84524329 -0.0215476 17.92262664 0 0 Z " fill="#C8102E" transform="translate(176,66)"/>
<path d="M0 0 C19.8 0 39.6 0 60 0 C60.04418346 30.50595866 60.08107602 61.01188761 60.10213066 91.51786815 C60.10463174 95.12852999 60.10722041 98.73919177 60.10986328 102.34985352 C60.1103879 103.06859839 60.11091252 103.78734327 60.11145304 104.52786829 C60.12012915 116.1289247 60.13588354 127.72996105 60.15430559 139.33100561 C60.17308274 151.25611697 60.18413315 163.18121791 60.18817699 175.10634345 C60.19066255 181.79548836 60.19683719 188.48458262 60.21146011 195.17371559 C60.22513977 201.48309534 60.22920185 207.79241156 60.22621536 214.10180473 C60.22676091 216.4046221 60.23067597 218.70744183 60.23841095 221.01024628 C60.29288459 238.08002017 59.95287052 255.16450071 55.75 271.8125 C55.53311523 272.68648438 55.31623047 273.56046875 55.09277344 274.4609375 C49.35160675 296.64160426 36.31300053 315.45121463 17 328 C-7.69160572 342.26250285 -35.97401478 344.33836688 -63.31347656 337.4140625 C-72.147121 334.97095469 -80.41647682 331.56265932 -88.5625 327.375 C-89.29549316 327.00294434 -90.02848633 326.63088867 -90.78369141 326.24755859 C-95.72503651 323.57569507 -95.72503651 323.57569507 -96.86230469 321.19458008 C-97.05834295 318.07013341 -95.94007346 316.43905679 -94.38671875 313.73828125 C-93.8026123 312.70944824 -93.21850586 311.68061523 -92.61669922 310.62060547 C-91.98006348 309.52893066 -91.34342773 308.43725586 -90.6875 307.3125 C-90.04828613 306.19504395 -89.40907227 305.07758789 -88.75048828 303.92626953 C-86.84770386 300.60914396 -84.92746164 297.30283628 -83 294 C-82.47712402 293.10168457 -81.95424805 292.20336914 -81.41552734 291.27783203 C-79.32035883 287.6841796 -77.21349192 284.09800918 -75.0859375 280.5234375 C-73.01368602 277.03996144 -71.00217102 273.52418338 -69 270 C-65.46574588 271.27736151 -62.35104707 272.91902756 -59.14233398 274.86914062 C-47.88022906 281.67712117 -36.68312735 285.05997523 -23.38671875 282.49609375 C-17.11455344 280.65133925 -12.76173478 277.97076846 -9.40625 272.3125 C-2.48851525 258.47703051 -0.85838836 243.16003479 -0.84178162 227.88230896 C-0.83684364 226.90273367 -0.83190566 225.92315839 -0.82681805 224.913899 C-0.81153934 221.65280601 -0.8031087 218.39173256 -0.79467773 215.13061523 C-0.78509163 212.78448822 -0.77508113 210.43836291 -0.76467896 208.09223938 C-0.73770318 201.73761401 -0.71665403 195.38298127 -0.69667697 189.02833056 C-0.67699283 183.05572917 -0.65286055 177.08314642 -0.62875474 171.11056162 C-0.58117362 159.28587848 -0.53788397 147.46118373 -0.49731445 135.63647461 C-0.45791114 124.15436907 -0.41647344 112.67227382 -0.37231445 101.19018555 C-0.36959018 100.48164511 -0.36686591 99.77310467 -0.36405908 99.04309332 C-0.35037881 95.48831994 -0.33665869 91.93354672 -0.32291877 88.37877357 C-0.20910304 58.91920351 -0.10305545 29.45960997 0 0 Z " fill="#C8102E" transform="translate(97,0)"/>
<path d="M0 0 C20 0 20 0 24.62890625 3.4453125 C26.17797852 5.69018555 26.17797852 5.69018555 27.5625 8.125 C28.66557438 9.78067616 29.76975507 11.43561575 30.875 13.08984375 C31.65423828 14.33290283 31.65423828 14.33290283 32.44921875 15.60107422 C34.74968524 19.15969886 37.3877896 22.40670433 40.0625 25.6875 C43.52701639 30.03163558 46.76452096 34.47032935 50 39 C50.33 26.13 50.66 13.26 51 0 C56.94 0 62.88 0 69 0 C69 22.77 69 45.54 69 69 C51 69 51 69 46.625 65.5 C45.37517501 63.69469724 44.17258898 61.85639857 43 60 C41.59796056 58.09042544 40.1608172 56.21024691 38.72216797 54.328125 C37.26680625 52.41666042 35.8406946 50.48659705 34.41796875 48.55078125 C29.71469405 42.28870694 24.8385474 36.15815123 20 30 C19.67 42.87 19.34 55.74 19 69 C12.73 69 6.46 69 0 69 C0 46.23 0 23.46 0 0 Z " fill="#000000" transform="translate(498,310)"/>
<path d="M0 0 C5.92415253 4.50273751 9.29024662 8.6846244 11.42578125 15.84375 C8.80269026 17.01487946 6.17749983 18.18080964 3.55078125 19.34375 C2.80441406 19.67761719 2.05804687 20.01148438 1.2890625 20.35546875 C0.57363281 20.67128906 -0.14179687 20.98710937 -0.87890625 21.3125 C-1.53874512 21.60576172 -2.19858398 21.89902344 -2.87841797 22.20117188 C-4.57421875 22.84375 -4.57421875 22.84375 -6.57421875 22.84375 C-7.11046875 21.750625 -7.64671875 20.6575 -8.19921875 19.53125 C-10.38605827 15.75398175 -12.33622957 14.22924646 -16.57421875 12.84375 C-21.00166628 12.1353584 -23.80724912 12.44551577 -27.82421875 14.53125 C-33.04566405 18.92201082 -35.80499777 22.96738067 -36.57421875 29.84375 C-36.76623575 37.16173119 -35.73137438 43.39226539 -30.57421875 48.84375 C-26.5966259 51.98076223 -22.94537083 53.17201528 -17.88671875 52.84375 C-13.85816782 52.14917225 -11.38713235 50.91238302 -8.57421875 47.84375 C-7.91421875 46.19375 -7.25421875 44.54375 -6.57421875 42.84375 C-11.19421875 42.84375 -15.81421875 42.84375 -20.57421875 42.84375 C-20.57421875 37.89375 -20.57421875 32.94375 -20.57421875 27.84375 C-8.69421875 27.84375 3.18578125 27.84375 15.42578125 27.84375 C15.42578125 39.61535164 13.69830197 50.49887796 5.7578125 59.796875 C-3.72926488 68.39386045 -14.15611445 69.56307223 -26.47558594 69.03173828 C-36.44260234 68.13892737 -44.66279324 62.59822804 -50.96484375 55.125 C-57.20827432 46.27508871 -58.76921858 35.43908788 -57.11328125 24.9140625 C-54.80754423 14.25341956 -49.67500938 6.01757282 -40.57421875 -0.15625 C-29.05437921 -6.90444024 -11.37135557 -6.81959655 0 0 Z " fill="#000000" transform="translate(635.57421875,312.15625)"/>
<path d="M0 0 C40.64694861 0 40.64694861 0 50.1796875 9.01171875 C58.20733115 17.78011064 60.57728505 26.32070796 60.3671875 38.14453125 C59.46208842 47.64807164 55.44201494 54.67896456 48.47265625 61.08984375 C33.62362536 72.56089605 19.74003241 69 0 69 C0 46.23 0 23.46 0 0 Z M19 15 C19 27.54 19 40.08 19 53 C29.83613799 52.03697306 29.83613799 52.03697306 37.25 45.5625 C40.9156219 40.19498222 41.86688629 35.42137994 41 29 C38.92665699 22.63427659 35.58525259 18.93797437 29.6875 15.75 C26.18076981 14.64160138 26.18076981 14.64160138 19 15 Z " fill="#000000" transform="translate(396,310)"/>
<path d="M0 0 C8.6625 -0.12375 8.6625 -0.12375 17.5 -0.25 C20.20993164 -0.30462402 20.20993164 -0.30462402 22.97460938 -0.36035156 C24.43097755 -0.37205057 25.88735897 -0.38223952 27.34375 -0.390625 C28.44831543 -0.4213208 28.44831543 -0.4213208 29.57519531 -0.45263672 C35.1556948 -0.45633241 39.31357583 0.95209593 44 4 C49.03040921 9.03040921 51.15720111 14.44935866 51.4375 21.4375 C51.24700316 27.47542174 49.77484376 32.15995104 45.50390625 36.53125 C43.13681965 38.56186793 40.59297071 40.27135286 38 42 C38.68964844 42.87140625 39.37929688 43.7428125 40.08984375 44.640625 C44.84171321 50.65796104 49.57125635 56.69020096 54.1875 62.8125 C54.92355469 63.78832031 55.65960938 64.76414062 56.41796875 65.76953125 C58 68 58 68 58 69 C50.12908872 70.10831222 41.73687463 71.25614864 34 69 C28.90994124 65.00361603 26.3206387 59.0021527 23.96948242 53.10644531 C22.88347558 50.55217361 22.88347558 50.55217361 20 47 C19.67 54.26 19.34 61.52 19 69 C12.73 69 6.46 69 0 69 C0 46.23 0 23.46 0 0 Z M19 15 C19 20.28 19 25.56 19 31 C25.82074889 30.32698463 25.82074889 30.32698463 31.1875 26.6875 C32.14347263 23.5254367 32.18502127 22.08105531 31 19 C29.54331238 16.54285631 29.54331238 16.54285631 27 15 C24.36 15 21.72 15 19 15 Z " fill="#000000" transform="translate(256,310)"/>
<path d="M0 0 C6.6 0 13.2 0 20 0 C24.50149357 10.12836054 24.50149357 10.12836054 26.47363281 15.31420898 C27.13386444 17.04531166 27.13386444 17.04531166 27.80743408 18.81138611 C28.49830109 20.63531639 28.49830109 20.63531639 29.203125 22.49609375 C29.6905267 23.77886186 30.1780575 25.06158092 30.66571045 26.34425354 C31.67923717 29.01198037 32.69086202 31.68041855 33.70117188 34.34936523 C34.99735571 37.77288542 36.29890929 41.1943362 37.60191727 44.61526394 C38.60621895 47.25399588 39.60744199 49.89388763 40.60774994 52.53413582 C41.31938829 54.41055713 42.03385289 56.28590578 42.74835205 58.16123962 C43.17589783 59.29324295 43.6034436 60.42524628 44.04394531 61.59155273 C44.42270813 62.59032944 44.80147095 63.58910614 45.19171143 64.6181488 C46 67 46 67 46 69 C39.4 69 32.8 69 26 69 C22 60 22 60 22 57 C14.08 57 6.16 57 -2 57 C-2.99 59.97 -3.98 62.94 -5 66 C-5.33 66.99 -5.66 67.98 -6 69 C-12.6 69 -19.2 69 -26 69 C-25.25333362 64.52000173 -24.50865686 61.30248668 -22.91455078 57.18164062 C-22.48385284 56.0602771 -22.05315491 54.93891357 -21.60940552 53.78356934 C-21.14275482 52.58655396 -20.67610413 51.38953857 -20.1953125 50.15625 C-19.71026797 48.90140553 -19.22564561 47.64639781 -18.74142456 46.39123535 C-17.72781163 43.76740787 -16.71037491 41.14510801 -15.68994141 38.52392578 C-14.38728756 35.17742493 -13.09228718 31.82802906 -11.79991341 28.47754669 C-10.80023983 25.88743539 -9.79747618 23.29852951 -8.79369736 20.71000671 C-8.08408544 18.87928273 -7.37626861 17.04786326 -6.66848755 15.21643066 C-6.23148529 14.09506714 -5.79448303 12.97370361 -5.34423828 11.81835938 C-4.77251389 10.34659241 -4.77251389 10.34659241 -4.1892395 8.84509277 C-2.93108532 5.83513105 -1.45896001 2.91792002 0 0 Z M10 24 C7.49289691 29.93915684 5.39938346 35.70277443 4 42 C8.29 42 12.58 42 17 42 C15.02 36.06 13.04 30.12 11 24 C10.67 24 10.34 24 10 24 Z " fill="#000000" transform="translate(343,310)"/>
<path d="M0 0 C15.51 0 31.02 0 47 0 C47 5.28 47 10.56 47 16 C42.38 16 37.76 16 33 16 C33 33.49 33 50.98 33 69 C26.73 69 20.46 69 14 69 C14 51.51 14 34.02 14 16 C9.38 16 4.76 16 0 16 C0 10.72 0 5.44 0 0 Z " fill="#000000" transform="translate(202,310)"/>
<path d="M0 0 C5.94 0 11.88 0 18 0 C18 22.77 18 45.54 18 69 C12.06 69 6.12 69 0 69 C0 46.23 0 23.46 0 0 Z " fill="#000000" transform="translate(467,310)"/>
</svg>
